<?xml version="1.0" encoding="UTF-8" standalone="no"?>
<!-- Created with Inkscape (http://www.inkscape.org/) -->
<svg
   xmlns:dc="http://purl.org/dc/elements/1.1/"
   xmlns:cc="http://web.resource.org/cc/"
   xmlns:rdf="http://www.w3.org/1999/02/22-rdf-syntax-ns#"
   xmlns:svg="http://www.w3.org/2000/svg"
   xmlns="http://www.w3.org/2000/svg"
   xmlns:sodipodi="http://sodipodi.sourceforge.net/DTD/sodipodi-0.dtd"
   xmlns:inkscape="http://www.inkscape.org/namespaces/inkscape"
   id="svg2211"
   sodipodi:version="0.32"
   inkscape:version="0.45.1"
   width="1306"
   height="346"
   version="1.0"
   sodipodi:docbase="C:\Users\TML\Desktop"
   sodipodi:docname="nortel.svg"
   inkscape:output_extension="org.inkscape.output.svg.inkscape">
  <metadata
     id="metadata2216">
    <rdf:RDF>
      <cc:Work
         rdf:about="">
        <dc:format>image/svg+xml</dc:format>
        <dc:type
           rdf:resource="http://purl.org/dc/dcmitype/StillImage" />
      </cc:Work>
    </rdf:RDF>
  </metadata>
  <defs
     id="defs2214" />
  <sodipodi:namedview
     inkscape:window-height="880"
     inkscape:window-width="1440"
     inkscape:pageshadow="2"
     inkscape:pageopacity="0.0"
     guidetolerance="10.0"
     gridtolerance="10.0"
     objecttolerance="10.0"
     borderopacity="1.0"
     bordercolor="#666666"
     pagecolor="#ffffff"
     id="base"
     inkscape:zoom="1.0359956"
     inkscape:cx="652.03971"
     inkscape:cy="221.92079"
     inkscape:window-x="-8"
     inkscape:window-y="-8"
     inkscape:current-layer="svg2211" />
  <path
     style="fill:#ffffff;fill-opacity:1"
     d="M 416.29152,319.57979 C 406.5714,318.12607 395.9886,315.61046 386.60141,312.52223 L 375.9113,309.00537 L 365.05961,311.60011 C 348.84287,315.4777 335.66961,317.198 322.29152,317.18521 C 308.22028,317.17176 298.6946,315.40134 290.16894,311.21498 C 284.70291,308.53099 275.79152,300.60074 275.79152,298.4205 C 275.79152,297.96254 279.72902,298.93631 284.54152,300.58445 C 292.30132,303.24194 294.93242,303.62814 307.79152,303.99714 C 322.07451,304.40701 338.26241,302.56023 350.11126,299.16914 L 353.931,298.07595 L 345.11126,292.18273 C 327.70712,280.55355 312.84854,265.54522 300.77819,247.40285 L 293.92173,237.09723 L 288.76449,244.40285 C 278.58122,258.82823 271.79152,275.86472 271.79152,286.99088 C 271.79152,290.94219 271.61076,291.30334 270.21351,290.14373 C 263.92191,284.92217 261.04177,268.6284 264.2095,256.17741 C 266.3533,247.75107 272.78353,234.82359 279.45916,225.51914 L 284.78251,218.0995 L 281.38633,208.34253 C 275.86527,192.48093 273.60497,179.79985 273.03707,161.5002 C 272.72783,151.53553 273.00626,141.52005 273.75987,135.5002 C 279.07674,93.029181 301.62984,53.022261 335.3699,26.210281 C 342.81991,20.290031 342.98719,20.217331 345.17878,21.947891 C 351.31526,26.793471 386.78366,57.716791 386.73286,58.177041 C 386.70059,58.469331 383.47257,60.733461 379.55948,63.208461 C 370.92206,68.671561 356.79122,82.324261 350.46498,91.318511 C 341.97361,103.391 335.36598,118.67563 332.19947,133.56995 C 330.31353,142.44085 329.27477,159.27684 330.22317,165.60127 L 330.93582,170.3535 L 334.11367,167.79285 C 335.86149,166.38449 342.46652,161.24001 348.79152,156.36068 C 383.63269,129.48294 432.77365,103.11962 469.64397,91.525331 C 476.31976,89.426061 481.78396,87.432421 481.78664,87.095031 C 481.79611,85.904291 469.76886,81.106431 461.582,79.035071 C 450.97449,76.351261 437.33446,76.918871 424.82892,80.564491 L 416.36632,83.031511 L 405.00131,73.442161 L 393.6363,63.852811 L 397.46391,61.523291 C 402.09502,58.704761 413.93015,54.048401 422.79152,51.558511 C 427.97835,50.101101 432.928,49.729731 447.29152,49.720291 C 463.09077,49.709911 466.25545,49.987681 473.17555,51.992171 C 489.15837,56.621801 502.72992,63.860151 514.53338,74.050251 L 519.92912,78.708461 L 540.11032,78.760531 C 561.73148,78.816301 565.36953,79.432701 576.07567,84.854141 C 581.55715,87.629881 587.92537,93.632841 590.33807,98.298471 L 591.99098,101.49485 L 588.64125,99.453151 C 579.7747,94.048881 565.36335,91.872721 547.81908,93.288851 C 531.66083,94.593111 532.27079,94.184291 536.30877,101.00374 C 545.27501,116.14615 549.13798,131.50696 549.06008,151.70846 C 549.01478,163.45797 548.58683,167.31595 546.39788,175.70846 C 539.93751,200.47764 524.19235,222.95264 504.02516,236.1922 L 496.39411,241.20191 L 493.84281,238.87336 C 492.4396,237.59266 487.46652,233.2371 482.79152,229.19433 C 478.11652,225.15156 474.18279,221.58838 474.04989,221.27615 C 473.917,220.96393 475.63695,219.66386 477.872,218.38711 C 489.35448,211.82789 504.78152,192.90897 510.64807,178.19229 C 520.8074,152.70681 517.79948,122.27601 503.48414,105.7156 L 500.08681,101.78547 L 486.13435,106.41932 C 445.04269,120.06656 398.91985,144.76027 360.18986,173.84876 C 354.08395,178.43466 346.21356,184.83069 342.7001,188.06217 L 336.312,193.93759 L 340.97305,203.32302 C 356.01166,233.60467 384.67947,254.83227 421.29152,262.79632 C 431.96614,265.11831 455.30466,265.13071 465.79152,262.81994 C 476.65841,260.42544 487.28278,256.7342 496.19592,252.2565 L 504.00171,248.33509 L 524.51851,265.96387 L 545.0353,283.59265 L 542.66341,285.51422 C 533.8495,292.65476 507.01371,306.0981 490.6608,311.56483 C 471.64199,317.92277 462.71423,319.35213 439.79152,319.70917 C 428.51652,319.88478 417.94152,319.82657 416.29152,319.57979 z M 153.79152,223.65193 C 115.01652,189.89293 82.954031,162.25766 82.541531,162.2402 C 82.129031,162.22274 81.791531,189.65846 81.791531,223.20847 L 81.791531,284.20847 L 55.291531,284.20847 L 28.791531,284.20847 L 28.791531,171.14058 L 28.791531,58.072701 L 37.541531,65.499101 C 42.354031,69.583621 74.394008,96.839161 108.74148,126.06698 C 143.08894,155.29479 171.55144,179.20846 171.99147,179.20846 C 172.4315,179.20846 172.79152,151.75846 172.79152,118.20846 L 172.79152,57.208461 L 199.29152,57.208461 L 225.79152,57.208461 L 225.79152,171.20846 C 225.79152,233.90847 225.45402,285.16874 225.04152,285.12019 C 224.62902,285.07164 192.56652,257.41092 153.79152,223.65193 z M 601.79152,171.20846 L 601.79152,58.208461 L 645.04152,58.228271 C 699.34213,58.253141 706.52215,59.154661 725.61242,68.344731 C 743.52877,76.969681 753.47715,89.759311 757.36252,109.16262 C 759.54088,120.04126 758.88616,136.08956 755.92153,144.48376 C 750.59923,159.55358 740.92182,171.77001 729.54689,177.77819 L 723.80225,180.81247 L 757.79689,232.08455 C 776.49393,260.28419 791.79152,283.54829 791.79152,283.78254 C 791.79152,284.0168 776.76654,284.20847 758.40267,284.20847 L 725.01383,284.20847 L 690.65267,225.16688 L 656.29152,166.12528 L 655.67533,193.41687 C 655.33643,208.42724 654.99893,234.99597 654.92533,252.45847 L 654.79152,284.20847 L 628.29152,284.20847 L 601.79152,284.20847 L 601.79152,171.20846 z M 680.15509,164.71956 C 697.89725,160.96057 705.47906,150.45235 704.61838,130.81398 C 704.29782,123.49973 703.73461,120.83194 701.75542,117.25286 C 696.72484,108.15581 686.58768,104.20123 667.50318,103.89082 L 656.29152,103.70846 L 656.02718,134.38237 C 655.78075,162.97763 655.8824,165.08747 657.52718,165.51637 C 661.39644,166.52535 673.67218,166.09308 680.15509,164.71956 z M 837.79152,195.70846 L 837.79152,107.20846 L 809.79152,107.20846 L 781.79152,107.20846 L 781.79152,82.208461 L 781.79152,57.208461 L 863.29152,57.208461 L 944.79152,57.208461 L 944.79152,82.208461 L 944.79152,107.20846 L 918.29152,107.20846 L 891.79152,107.20846 L 891.79152,195.70846 L 891.79152,284.20847 L 864.79152,284.20847 L 837.79152,284.20847 L 837.79152,195.70846 z M 980.79152,170.70846 L 980.79152,57.208461 L 1047.2915,57.208461 L 1113.7915,57.208461 L 1113.7915,80.208461 L 1113.7915,103.20846 L 1074.2915,103.20846 L 1034.7915,103.20846 L 1034.7915,123.70846 L 1034.7915,144.20846 L 1070.2915,144.20846 L 1105.7915,144.20846 L 1105.7915,167.20846 L 1105.7915,190.20846 L 1070.2915,190.20846 L 1034.7915,190.20846 L 1034.7915,214.20847 L 1034.7915,238.20847 L 1077.7915,238.20847 L 1120.7915,238.20847 L 1120.7915,261.20847 L 1120.7915,284.20847 L 1050.7915,284.20847 L 980.79152,284.20847 L 980.79152,170.70846 z M 1162.7915,170.70846 L 1162.7915,57.208461 L 1189.7915,57.208461 L 1216.7915,57.208461 L 1216.7915,145.70846 L 1216.7915,234.20847 L 1252.2915,234.20847 L 1287.7915,234.20847 L 1287.7915,259.20847 L 1287.7915,284.20847 L 1225.2915,284.20847 L 1162.7915,284.20847 L 1162.7915,170.70846 z "
     id="path2758" />
</svg>
